/* XPM */
static char * powermanga_xpm[] = {
"32 32 21 1",
" 	c None",
".	c #000000",
"+	c #7F7F00",
"@	c #FFFF00",
"#	c #FF0000",
"$	c #333333",
"%	c #191919",
"&	c #7F0000",
"*	c #007F00",
"=	c #00FF00",
"-	c #00007F",
";	c #7F007F",
">	c #0000FF",
",	c #B2B2B2",
"'	c #00FFFF",
")	c #007F7F",
"!	c #4C4C4C",
"~	c #CCCCCC",
"{	c #E5E5E5",
"]	c #7F7F7F",
"^	c #999999",
"                                ",
"                                ",
"                  ...           ",
"                 .+@#.          ",
"                 .@@@.    ...   ",
"                 .+@+.   .+@#.  ",
"                  ...    .@@@.  ",
"                         .+@+.  ",
"                          ...   ",
"                                ",
"                 $....$         ",
"      ...... $...%$##&&$        ",
"    .%******$&&#######&.   ...  ",
"   .$======###########&%  .+@#. ",
"  .$=====###&&&######&&.  .@@@. ",
"  .*====##&----;&####&.   .+@+. ",
"  .*===##&--->--;###&%.    ...  ",
"  $*==###;-,'---;&#&&.          ",
"   %**##&-')----&&#&&           ",
"    %&##;-)----!&#&&.           ",
"     $&#&-----;&&&&&.           ",
"     !,##;---$&&&&&*.           ",
"     !~{##&&&&&&&&=*.           ",
"     %]^^###&&&&&==*.           ",
"     .!]^]&&&&&&===*.           ",
"      ..$$$&&&====*$            ",
"       ....*======*.            ",
"           .*====*$             ",
"            .****%              ",
"             ....               ",
"                                ",
"                                "};
